<svg xmlns="http://www.w3.org/2000/svg" width="200" height="200" 
  viewBox="-25 -25 250 250" class="float"> 
  <defs>
   <radialGradient id="rgrad" cx="50%" cy="50%" r="50%" >
     <stop offset="0%" style="stop-color:#00FF84;stop-opacity:1.00" />
     <stop offset="100%" style="stop-color:#008EE6;stop-opacity:1.00" />
   </radialGradient>
  </defs>
  <path d="M197.82968058221238 79.27915066455289 C196.16984922387348 69.40304366356915 187.34455954873758 50.918225655314494 181.84815674245846 42.54672126099373 C178.03140432009334 36.73347197741471 168.27366202548572 26.58212992353771 162.85509678311647 22.223160205720234 C157.2637695261884 17.725211928788514 144.83041971354044 10.247732100257322 138.171906728693 7.572160380673381 C130.63541807627018 4.543794144957509 114.63866242900237 -0.211592221096167 106.52761130863284 0.2132759802016153 C87.15333778176331 1.2281275231958608 48.88168605680017 14.180981549260334 33.19129863404284 25.59168445802341 C25.444732129444233 31.22531010188378 13.984707605734432 47.4143625851717 10.114202113814045 56.17599586569334 C4.762388853831466 68.29085405868224 -1.81586445003042 95.17622747787365 0.3403831417817713 108.24383209879633 C3.7344865796522457 128.81327038455916 25.01826217348927 167.8207356658849 41.24025492524941 180.91534068858837 C53.774417843792946 191.03308116721945 86.72135155654638 201.03252601811636 102.7938643434066 199.96096399110326 C122.46371199573343 198.64956594769353 159.64806764518966 179.9766420605311 174.3634180872261 166.8586722152363 C181.2081097927779 160.7569854258226 190.64796003518788 144.27404350249736 193.4680342238899 135.5489321685159 C197.80742938676045 122.12314852428749 200.16822535100812 93.19364760858625 197.82968058221238 79.27915066455289Z" stroke="none" fill="url(#rgrad)"  />
</svg>